<mxfile host="" modified="2020-07-22T03:18:46.512Z" agent="5.0 (Macintosh; Intel Mac OS X 10_15_4) AppleWebKit/537.36 (KHTML, like Gecko) Code/1.46.1 Chrome/78.0.3904.130 Electron/7.3.1 Safari/537.36" etag="AzC0VE6q4OOPtXU649Vv" version="13.1.3">
    <diagram id="6hGFLwfOUW9BJ-s0fimq" name="Page-1">
        <mxGraphModel dx="1256" dy="1954" grid="1" gridSize="10" guides="1" tooltips="1" connect="1" arrows="1" fold="1" page="1" pageScale="1" pageWidth="827" pageHeight="1169" math="0" shadow="0">
            <root>
                <mxCell id="0"/>
                <mxCell id="1" parent="0"/>
                <mxCell id="6" style="edgeStyle=orthogonalEdgeStyle;rounded=0;orthogonalLoop=1;jettySize=auto;html=1;exitX=0.5;exitY=1;exitDx=0;exitDy=0;" edge="1" parent="1" source="2" target="5">
                    <mxGeometry relative="1" as="geometry"/>
                </mxCell>
                <mxCell id="2" value="&lt;div style=&quot;background-color: rgb(40 , 44 , 52) ; font-family: &amp;#34;monaco&amp;#34; , &amp;#34;menlo&amp;#34; , &amp;#34;monaco&amp;#34; , &amp;#34;courier new&amp;#34; , monospace ; font-size: 13px ; line-height: 20px&quot;&gt;&lt;div style=&quot;color: rgb(171 , 178 , 191) ; font-family: &amp;#34;monaco&amp;#34; , &amp;#34;menlo&amp;#34; , &amp;#34;monaco&amp;#34; , &amp;#34;courier new&amp;#34; , monospace ; line-height: 20px&quot;&gt;&lt;span style=&quot;color: #61afef&quot;&gt;alloc_netdev&lt;/span&gt;(&lt;span style=&quot;color: #d19a66&quot;&gt;0&lt;/span&gt;, &lt;span style=&quot;color: #98c379&quot;&gt;&quot;lo&quot;&lt;/span&gt;, loopback_setup);&lt;/div&gt;&lt;/div&gt;" style="shape=process;whiteSpace=wrap;html=1;backgroundOutline=1;size=0.029411764705882353;" vertex="1" parent="1">
                    <mxGeometry x="70" y="125" width="340" height="40" as="geometry"/>
                </mxCell>
                <mxCell id="9" style="edgeStyle=orthogonalEdgeStyle;rounded=0;orthogonalLoop=1;jettySize=auto;html=1;exitX=0.5;exitY=1;exitDx=0;exitDy=0;entryX=0.5;entryY=0;entryDx=0;entryDy=0;" edge="1" parent="1" source="5" target="7">
                    <mxGeometry relative="1" as="geometry"/>
                </mxCell>
                <mxCell id="5" value="&lt;div style=&quot;background-color: rgb(40 , 44 , 52) ; font-family: &amp;#34;monaco&amp;#34; , &amp;#34;menlo&amp;#34; , &amp;#34;monaco&amp;#34; , &amp;#34;courier new&amp;#34; , monospace ; font-size: 13px ; line-height: 20px&quot;&gt;&lt;div style=&quot;font-family: &amp;#34;monaco&amp;#34; , &amp;#34;menlo&amp;#34; , &amp;#34;monaco&amp;#34; , &amp;#34;courier new&amp;#34; , monospace ; line-height: 20px&quot;&gt;&lt;font color=&quot;#61afef&quot;&gt;loopback_setup&lt;/font&gt;&lt;/div&gt;&lt;/div&gt;" style="shape=process;whiteSpace=wrap;html=1;backgroundOutline=1;size=0.029411764705882353;" vertex="1" parent="1">
                    <mxGeometry x="70" y="230" width="340" height="40" as="geometry"/>
                </mxCell>
                <mxCell id="10" style="edgeStyle=orthogonalEdgeStyle;rounded=0;orthogonalLoop=1;jettySize=auto;html=1;exitX=0.5;exitY=1;exitDx=0;exitDy=0;" edge="1" parent="1" source="7" target="8">
                    <mxGeometry relative="1" as="geometry"/>
                </mxCell>
                <mxCell id="7" value="&lt;div style=&quot;background-color: rgb(40 , 44 , 52) ; font-family: &amp;#34;monaco&amp;#34; , &amp;#34;menlo&amp;#34; , &amp;#34;monaco&amp;#34; , &amp;#34;courier new&amp;#34; , monospace ; font-size: 13px ; line-height: 20px&quot;&gt;&lt;div style=&quot;font-family: &amp;#34;monaco&amp;#34; , &amp;#34;menlo&amp;#34; , &amp;#34;monaco&amp;#34; , &amp;#34;courier new&amp;#34; , monospace ; line-height: 20px&quot;&gt;&lt;font color=&quot;#61afef&quot;&gt;dev_net_set(dev,net)&lt;/font&gt;&lt;/div&gt;&lt;/div&gt;" style="shape=process;whiteSpace=wrap;html=1;backgroundOutline=1;size=0.029411764705882353;" vertex="1" parent="1">
                    <mxGeometry x="70" y="340" width="340" height="40" as="geometry"/>
                </mxCell>
                <mxCell id="31" style="edgeStyle=orthogonalEdgeStyle;rounded=0;orthogonalLoop=1;jettySize=auto;html=1;exitX=0.5;exitY=1;exitDx=0;exitDy=0;" edge="1" parent="1" source="8" target="30">
                    <mxGeometry relative="1" as="geometry"/>
                </mxCell>
                <mxCell id="32" value="dev-&amp;gt;netdev_ops-&amp;gt;node_init(dev)" style="edgeLabel;html=1;align=center;verticalAlign=middle;resizable=0;points=[];" vertex="1" connectable="0" parent="31">
                    <mxGeometry x="-0.0167" relative="1" as="geometry">
                        <mxPoint as="offset"/>
                    </mxGeometry>
                </mxCell>
                <mxCell id="8" value="&lt;div style=&quot;background-color: rgb(40 , 44 , 52) ; font-family: &amp;#34;monaco&amp;#34; , &amp;#34;menlo&amp;#34; , &amp;#34;monaco&amp;#34; , &amp;#34;courier new&amp;#34; , monospace ; font-size: 13px ; line-height: 20px&quot;&gt;&lt;div style=&quot;font-family: &amp;#34;monaco&amp;#34; , &amp;#34;menlo&amp;#34; , &amp;#34;monaco&amp;#34; , &amp;#34;courier new&amp;#34; , monospace ; line-height: 20px&quot;&gt;&lt;font color=&quot;#61afef&quot;&gt;register_netdev&lt;/font&gt;&lt;/div&gt;&lt;/div&gt;" style="shape=process;whiteSpace=wrap;html=1;backgroundOutline=1;size=0.029411764705882353;" vertex="1" parent="1">
                    <mxGeometry x="70" y="440" width="340" height="40" as="geometry"/>
                </mxCell>
                <mxCell id="11" value="&lt;p style=&quot;margin: 0px ; margin-top: 4px ; text-align: center&quot;&gt;&lt;b&gt;loopback_dev&lt;/b&gt;&lt;/p&gt;&lt;hr size=&quot;1&quot;&gt;&lt;div style=&quot;height: 2px&quot;&gt;&lt;div style=&quot;color: rgb(171 , 178 , 191) ; font-family: &amp;#34;monaco&amp;#34; , &amp;#34;menlo&amp;#34; , &amp;#34;monaco&amp;#34; , &amp;#34;courier new&amp;#34; , monospace ; font-size: 13px&quot;&gt;&lt;div style=&quot;background-color: rgb(40 , 44 , 52) ; font-family: &amp;#34;monaco&amp;#34; , &amp;#34;menlo&amp;#34; , &amp;#34;monaco&amp;#34; , &amp;#34;courier new&amp;#34; , monospace ; line-height: 20px&quot;&gt;&lt;div style=&quot;font-family: &amp;#34;monaco&amp;#34; , &amp;#34;menlo&amp;#34; , &amp;#34;monaco&amp;#34; , &amp;#34;courier new&amp;#34; , monospace ; line-height: 20px&quot;&gt;&lt;div style=&quot;font-family: &amp;#34;monaco&amp;#34; , &amp;#34;menlo&amp;#34; , &amp;#34;monaco&amp;#34; , &amp;#34;courier new&amp;#34; , monospace ; line-height: 20px&quot;&gt;&lt;div&gt;&lt;span style=&quot;color: #e06c75&quot;&gt;dev&lt;/span&gt;-&amp;gt;&lt;span style=&quot;color: #e06c75&quot;&gt;mtu&lt;/span&gt;       &lt;span style=&quot;color: #c678dd&quot;&gt;=&lt;/span&gt; &lt;span style=&quot;color: #d19a66&quot;&gt;64&lt;/span&gt; &lt;span style=&quot;color: #c678dd&quot;&gt;*&lt;/span&gt; &lt;span style=&quot;color: #d19a66&quot;&gt;1024&lt;/span&gt;;&lt;/div&gt;&lt;div&gt;    &lt;span style=&quot;color: #e06c75&quot;&gt;dev&lt;/span&gt;-&amp;gt;&lt;span style=&quot;color: #e06c75&quot;&gt;hard_header_len&lt;/span&gt;    &lt;span style=&quot;color: #c678dd&quot;&gt;=&lt;/span&gt; ETH_HLEN; &lt;span style=&quot;color: #7f848e ; font-style: italic&quot;&gt;/* 14   */&lt;/span&gt;&lt;/div&gt;&lt;div&gt;    &lt;span style=&quot;color: #e06c75&quot;&gt;dev&lt;/span&gt;-&amp;gt;&lt;span style=&quot;color: #e06c75&quot;&gt;addr_len&lt;/span&gt;       &lt;span style=&quot;color: #c678dd&quot;&gt;=&lt;/span&gt; ETH_ALEN; &lt;span style=&quot;color: #7f848e ; font-style: italic&quot;&gt;/* 6    */&lt;/span&gt;&lt;/div&gt;&lt;div&gt;    &lt;span style=&quot;color: #e06c75&quot;&gt;dev&lt;/span&gt;-&amp;gt;&lt;span style=&quot;color: #e06c75&quot;&gt;type&lt;/span&gt;       &lt;span style=&quot;color: #c678dd&quot;&gt;=&lt;/span&gt; ARPHRD_LOOPBACK;  &lt;span style=&quot;color: #7f848e ; font-style: italic&quot;&gt;/* 0x0001*/&lt;/span&gt;&lt;/div&gt;&lt;div&gt;    &lt;span style=&quot;color: #e06c75&quot;&gt;dev&lt;/span&gt;-&amp;gt;&lt;span style=&quot;color: #e06c75&quot;&gt;flags&lt;/span&gt;      &lt;span style=&quot;color: #c678dd&quot;&gt;=&lt;/span&gt; IFF_LOOPBACK;&lt;/div&gt;&lt;div&gt;    &lt;span style=&quot;color: #e06c75&quot;&gt;dev&lt;/span&gt;-&amp;gt;&lt;span style=&quot;color: #e06c75&quot;&gt;priv_flags&lt;/span&gt;     &lt;span style=&quot;color: #c678dd&quot;&gt;|=&lt;/span&gt; IFF_LIVE_ADDR_CHANGE &lt;span style=&quot;color: #c678dd&quot;&gt;|&lt;/span&gt; IFF_NO_QUEUE;&lt;/div&gt;&lt;div&gt;&lt;div style=&quot;font-family: &amp;#34;monaco&amp;#34; , &amp;#34;menlo&amp;#34; , &amp;#34;monaco&amp;#34; , &amp;#34;courier new&amp;#34; , monospace ; line-height: 20px&quot;&gt;&lt;span style=&quot;color: #e06c75&quot;&gt;dev&lt;/span&gt;-&amp;gt;&lt;span style=&quot;color: #e06c75&quot;&gt;priv_flags&lt;/span&gt; &lt;span style=&quot;color: #c678dd&quot;&gt;&amp;amp;=&lt;/span&gt; &lt;span style=&quot;color: #c678dd&quot;&gt;~&lt;/span&gt;(IFF_XMIT_DST_RELEASE &lt;span style=&quot;color: #c678dd&quot;&gt;|&lt;/span&gt; IFF_XMIT_DST_RELEASE_PERM);&lt;/div&gt;&lt;/div&gt;&lt;div&gt;    &lt;span style=&quot;color: #e06c75&quot;&gt;dev&lt;/span&gt;-&amp;gt;&lt;span style=&quot;color: #e06c75&quot;&gt;hw_features&lt;/span&gt;    &lt;span style=&quot;color: #c678dd&quot;&gt;=&lt;/span&gt; NETIF_F_GSO_SOFTWARE;&lt;/div&gt;&lt;div&gt;    &lt;span style=&quot;color: #e06c75&quot;&gt;dev&lt;/span&gt;-&amp;gt;&lt;span style=&quot;color: #e06c75&quot;&gt;features&lt;/span&gt;       &lt;span style=&quot;color: #c678dd&quot;&gt;=&lt;/span&gt; NETIF_F_SG &lt;span style=&quot;color: #c678dd&quot;&gt;|&lt;/span&gt; NETIF_F_FRAGLIST&lt;/div&gt;&lt;div&gt;        &lt;span style=&quot;color: #c678dd&quot;&gt;&amp;nbsp; &amp;nbsp; &amp;nbsp; &amp;nbsp; &amp;nbsp; &amp;nbsp; &amp;nbsp; &amp;nbsp; |&lt;/span&gt; NETIF_F_GSO_SOFTWARE&lt;/div&gt;&lt;div&gt;        &lt;span style=&quot;color: #c678dd&quot;&gt;&amp;nbsp; &amp;nbsp; &amp;nbsp; &amp;nbsp; &amp;nbsp; &amp;nbsp; &amp;nbsp; &amp;nbsp; |&lt;/span&gt; NETIF_F_HW_CSUM&lt;/div&gt;&lt;div&gt;        &lt;span style=&quot;color: #c678dd&quot;&gt;&amp;nbsp; &amp;nbsp; &amp;nbsp; &amp;nbsp; &amp;nbsp; &amp;nbsp; &amp;nbsp; &amp;nbsp; |&lt;/span&gt; NETIF_F_RXCSUM&lt;/div&gt;&lt;div&gt;        &lt;span style=&quot;color: #c678dd&quot;&gt;&amp;nbsp; &amp;nbsp; &amp;nbsp; &amp;nbsp; &amp;nbsp; &amp;nbsp; &amp;nbsp; &amp;nbsp; |&lt;/span&gt; NETIF_F_SCTP_CRC&lt;/div&gt;&lt;div&gt;        &lt;span style=&quot;color: #c678dd&quot;&gt;&amp;nbsp; &amp;nbsp; &amp;nbsp; &amp;nbsp; &amp;nbsp; &amp;nbsp; &amp;nbsp; &amp;nbsp; |&lt;/span&gt; NETIF_F_HIGHDMA&lt;/div&gt;&lt;div&gt;        &lt;span style=&quot;color: #c678dd&quot;&gt;&amp;nbsp; &amp;nbsp; &amp;nbsp; &amp;nbsp; &amp;nbsp; &amp;nbsp; &amp;nbsp; &amp;nbsp; |&lt;/span&gt; NETIF_F_LLTX&lt;/div&gt;&lt;div&gt;        &lt;span style=&quot;color: #c678dd&quot;&gt;&amp;nbsp; &amp;nbsp; &amp;nbsp; &amp;nbsp; &amp;nbsp; &amp;nbsp; &amp;nbsp; &amp;nbsp; |&lt;/span&gt; NETIF_F_NETNS_LOCAL&lt;/div&gt;&lt;div&gt;        &lt;span style=&quot;color: #c678dd&quot;&gt;&amp;nbsp; &amp;nbsp; &amp;nbsp; &amp;nbsp; &amp;nbsp; &amp;nbsp; &amp;nbsp; &amp;nbsp; |&lt;/span&gt; NETIF_F_VLAN_CHALLENGED&lt;/div&gt;&lt;div&gt;        &lt;span style=&quot;color: #c678dd&quot;&gt;&amp;nbsp; &amp;nbsp; &amp;nbsp; &amp;nbsp; &amp;nbsp; &amp;nbsp; &amp;nbsp; &amp;nbsp; |&lt;/span&gt; NETIF_F_LOOPBACK;&lt;/div&gt;&lt;div&gt;    &lt;span style=&quot;color: #e06c75&quot;&gt;dev&lt;/span&gt;-&amp;gt;&lt;span style=&quot;color: #e06c75&quot;&gt;ethtool_ops&lt;/span&gt;    &lt;span style=&quot;color: #c678dd&quot;&gt;=&lt;/span&gt; &lt;span style=&quot;color: #c678dd&quot;&gt;&amp;amp;&lt;/span&gt;loopback_ethtool_ops;&lt;/div&gt;&lt;div&gt;    &lt;span style=&quot;color: #e06c75&quot;&gt;dev&lt;/span&gt;-&amp;gt;&lt;span style=&quot;color: #e06c75&quot;&gt;header_ops&lt;/span&gt;     &lt;span style=&quot;color: #c678dd&quot;&gt;=&lt;/span&gt; &lt;span style=&quot;color: #c678dd&quot;&gt;&amp;amp;&lt;/span&gt;eth_header_ops;&lt;/div&gt;&lt;div&gt;    &lt;span style=&quot;color: #e06c75&quot;&gt;dev&lt;/span&gt;-&amp;gt;&lt;span style=&quot;color: #e06c75&quot;&gt;netdev_ops&lt;/span&gt;     &lt;span style=&quot;color: #c678dd&quot;&gt;=&lt;/span&gt; &lt;span style=&quot;color: #c678dd&quot;&gt;&amp;amp;&lt;/span&gt;loopback_ops;&lt;/div&gt;&lt;div&gt;    &lt;span style=&quot;color: #e06c75&quot;&gt;dev&lt;/span&gt;-&amp;gt;&lt;span style=&quot;color: #e06c75&quot;&gt;extended&lt;/span&gt;-&amp;gt;&lt;span style=&quot;color: #e06c75&quot;&gt;needs_free_netdev&lt;/span&gt;    &lt;span style=&quot;color: #c678dd&quot;&gt;=&lt;/span&gt; &lt;span style=&quot;color: #d19a66&quot;&gt;true&lt;/span&gt;;&lt;/div&gt;&lt;div&gt;    &lt;span style=&quot;color: #e06c75&quot;&gt;dev&lt;/span&gt;-&amp;gt;&lt;span style=&quot;color: #e06c75&quot;&gt;extended&lt;/span&gt;-&amp;gt;&lt;span style=&quot;color: #e06c75&quot;&gt;priv_destructor&lt;/span&gt;  &lt;span style=&quot;color: #c678dd&quot;&gt;=&lt;/span&gt; loopback_dev_free;&lt;/div&gt;&lt;/div&gt;&lt;/div&gt;&lt;/div&gt;&lt;/div&gt;&lt;/div&gt;" style="verticalAlign=top;align=left;overflow=fill;fontSize=12;fontFamily=Helvetica;html=1;" vertex="1" parent="1">
                    <mxGeometry x="600" width="570" height="500" as="geometry"/>
                </mxCell>
                <mxCell id="13" value="" style="endArrow=open;endFill=1;endSize=12;html=1;exitX=1;exitY=0.5;exitDx=0;exitDy=0;entryX=0;entryY=0.5;entryDx=0;entryDy=0;" edge="1" parent="1" source="5" target="11">
                    <mxGeometry width="160" relative="1" as="geometry">
                        <mxPoint x="405" y="300" as="sourcePoint"/>
                        <mxPoint x="678.0799999999999" y="355.0100000000002" as="targetPoint"/>
                    </mxGeometry>
                </mxCell>
                <mxCell id="15" value="&lt;p style=&quot;margin: 0px ; margin-top: 4px ; text-align: center&quot;&gt;&lt;b&gt;net_device&lt;/b&gt;&lt;/p&gt;&lt;div style=&quot;height: 2px&quot;&gt;&lt;div&gt;&lt;br&gt;&lt;/div&gt;&lt;/div&gt;" style="verticalAlign=top;align=left;overflow=fill;fontSize=12;fontFamily=Helvetica;html=1;" vertex="1" parent="1">
                    <mxGeometry x="805" y="-100" width="160" height="20" as="geometry"/>
                </mxCell>
                <mxCell id="16" value="" style="endArrow=block;dashed=1;endFill=0;endSize=12;html=1;exitX=0.5;exitY=0;exitDx=0;exitDy=0;entryX=0.5;entryY=1;entryDx=0;entryDy=0;" edge="1" parent="1" source="11" target="15">
                    <mxGeometry width="160" relative="1" as="geometry">
                        <mxPoint x="900" y="760" as="sourcePoint"/>
                        <mxPoint x="520" y="580" as="targetPoint"/>
                    </mxGeometry>
                </mxCell>
                <mxCell id="17" value="&lt;div style=&quot;background-color: rgb(40 , 44 , 52) ; font-family: &amp;#34;monaco&amp;#34; , &amp;#34;menlo&amp;#34; , &amp;#34;monaco&amp;#34; , &amp;#34;courier new&amp;#34; , monospace ; font-size: 13px ; line-height: 20px&quot;&gt;&lt;div style=&quot;font-family: &amp;#34;monaco&amp;#34; , &amp;#34;menlo&amp;#34; , &amp;#34;monaco&amp;#34; , &amp;#34;courier new&amp;#34; , monospace ; line-height: 20px&quot;&gt;&lt;div style=&quot;color: rgb(171 , 178 , 191) ; font-family: &amp;#34;monaco&amp;#34; , &amp;#34;menlo&amp;#34; , &amp;#34;monaco&amp;#34; , &amp;#34;courier new&amp;#34; , monospace ; line-height: 20px&quot;&gt;&lt;span style=&quot;color: #e06c75&quot;&gt;net&lt;/span&gt;-&amp;gt;&lt;span style=&quot;color: #e06c75&quot;&gt;loopback_dev&lt;/span&gt; &lt;span style=&quot;color: #c678dd&quot;&gt;=&lt;/span&gt; dev;&lt;/div&gt;&lt;/div&gt;&lt;/div&gt;" style="shape=process;whiteSpace=wrap;html=1;backgroundOutline=1;size=0.029411764705882353;" vertex="1" parent="1">
                    <mxGeometry x="70" y="730" width="340" height="40" as="geometry"/>
                </mxCell>
                <mxCell id="19" value="&lt;p style=&quot;margin: 0px ; margin-top: 4px ; text-align: center&quot;&gt;&lt;b&gt;loopback_ethtool_ops&lt;/b&gt;&lt;/p&gt;&lt;hr size=&quot;1&quot;&gt;&lt;div style=&quot;height: 2px&quot;&gt;&lt;div style=&quot;color: rgb(171 , 178 , 191) ; font-family: &amp;#34;monaco&amp;#34; , &amp;#34;menlo&amp;#34; , &amp;#34;monaco&amp;#34; , &amp;#34;courier new&amp;#34; , monospace ; font-size: 13px&quot;&gt;&lt;div style=&quot;background-color: rgb(40 , 44 , 52) ; font-family: &amp;#34;monaco&amp;#34; , &amp;#34;menlo&amp;#34; , &amp;#34;monaco&amp;#34; , &amp;#34;courier new&amp;#34; , monospace ; line-height: 20px&quot;&gt;&lt;div style=&quot;font-family: &amp;#34;monaco&amp;#34; , &amp;#34;menlo&amp;#34; , &amp;#34;monaco&amp;#34; , &amp;#34;courier new&amp;#34; , monospace ; line-height: 20px&quot;&gt;&lt;div style=&quot;font-family: &amp;#34;monaco&amp;#34; , &amp;#34;menlo&amp;#34; , &amp;#34;monaco&amp;#34; , &amp;#34;courier new&amp;#34; , monospace ; line-height: 20px&quot;&gt;&lt;div&gt;&lt;div style=&quot;font-family: &amp;#34;monaco&amp;#34; , &amp;#34;menlo&amp;#34; , &amp;#34;monaco&amp;#34; , &amp;#34;courier new&amp;#34; , monospace ; line-height: 20px&quot;&gt;.get_link      &lt;span style=&quot;color: #c678dd&quot;&gt;=&lt;/span&gt; always_on,&lt;/div&gt;&lt;/div&gt;&lt;/div&gt;&lt;/div&gt;&lt;/div&gt;&lt;/div&gt;&lt;/div&gt;" style="verticalAlign=top;align=left;overflow=fill;fontSize=12;fontFamily=Helvetica;html=1;" vertex="1" parent="1">
                    <mxGeometry x="1280" width="180" height="60" as="geometry"/>
                </mxCell>
                <mxCell id="20" value="&lt;p style=&quot;margin: 0px ; margin-top: 4px ; text-align: center&quot;&gt;&lt;b&gt;eth_header_ops&lt;/b&gt;&lt;/p&gt;&lt;hr size=&quot;1&quot;&gt;&lt;div style=&quot;height: 2px&quot;&gt;&lt;div style=&quot;color: rgb(171 , 178 , 191) ; font-family: &amp;#34;monaco&amp;#34; , &amp;#34;menlo&amp;#34; , &amp;#34;monaco&amp;#34; , &amp;#34;courier new&amp;#34; , monospace ; font-size: 13px&quot;&gt;&lt;div style=&quot;background-color: rgb(40 , 44 , 52) ; font-family: &amp;#34;monaco&amp;#34; , &amp;#34;menlo&amp;#34; , &amp;#34;monaco&amp;#34; , &amp;#34;courier new&amp;#34; , monospace ; line-height: 20px&quot;&gt;&lt;div style=&quot;font-family: &amp;#34;monaco&amp;#34; , &amp;#34;menlo&amp;#34; , &amp;#34;monaco&amp;#34; , &amp;#34;courier new&amp;#34; , monospace ; line-height: 20px&quot;&gt;&lt;div style=&quot;font-family: &amp;#34;monaco&amp;#34; , &amp;#34;menlo&amp;#34; , &amp;#34;monaco&amp;#34; , &amp;#34;courier new&amp;#34; , monospace ; line-height: 20px&quot;&gt;&lt;div&gt;&lt;br&gt;&lt;/div&gt;&lt;/div&gt;&lt;/div&gt;&lt;/div&gt;&lt;/div&gt;&lt;/div&gt;" style="verticalAlign=top;align=left;overflow=fill;fontSize=12;fontFamily=Helvetica;html=1;" vertex="1" parent="1">
                    <mxGeometry x="1280" y="160" width="250" height="130" as="geometry"/>
                </mxCell>
                <mxCell id="22" value="&lt;p style=&quot;margin: 0px ; margin-top: 4px ; text-align: center&quot;&gt;&lt;b&gt;loopback_ops&lt;/b&gt;&lt;/p&gt;&lt;hr size=&quot;1&quot;&gt;&lt;div style=&quot;height: 2px&quot;&gt;&lt;div style=&quot;color: rgb(171 , 178 , 191) ; font-family: &amp;#34;monaco&amp;#34; , &amp;#34;menlo&amp;#34; , &amp;#34;monaco&amp;#34; , &amp;#34;courier new&amp;#34; , monospace ; font-size: 13px&quot;&gt;&lt;div style=&quot;background-color: rgb(40 , 44 , 52) ; font-family: &amp;#34;monaco&amp;#34; , &amp;#34;menlo&amp;#34; , &amp;#34;monaco&amp;#34; , &amp;#34;courier new&amp;#34; , monospace ; line-height: 20px&quot;&gt;&lt;div style=&quot;font-family: &amp;#34;monaco&amp;#34; , &amp;#34;menlo&amp;#34; , &amp;#34;monaco&amp;#34; , &amp;#34;courier new&amp;#34; , monospace ; line-height: 20px&quot;&gt;&lt;div style=&quot;font-family: &amp;#34;monaco&amp;#34; , &amp;#34;menlo&amp;#34; , &amp;#34;monaco&amp;#34; , &amp;#34;courier new&amp;#34; , monospace ; line-height: 20px&quot;&gt;&lt;div&gt;&lt;div style=&quot;font-family: &amp;#34;monaco&amp;#34; , &amp;#34;menlo&amp;#34; , &amp;#34;monaco&amp;#34; , &amp;#34;courier new&amp;#34; , monospace ; line-height: 20px&quot;&gt;&lt;div&gt;.ndo_init      &lt;span style=&quot;color: #c678dd&quot;&gt;=&lt;/span&gt; loopback_dev_init,&lt;/div&gt;&lt;div&gt;    .ndo_start_xmit&lt;span style=&quot;color: #c678dd&quot;&gt;=&lt;/span&gt; loopback_xmit,&lt;/div&gt;&lt;div&gt;    .ndo_get_stats64 &lt;span style=&quot;color: #c678dd&quot;&gt;=&lt;/span&gt; loopback_get_stats64,&lt;/div&gt;&lt;div&gt;    .ndo_set_mac_address &lt;span style=&quot;color: #c678dd&quot;&gt;=&lt;/span&gt; eth_mac_addr,&lt;/div&gt;&lt;/div&gt;&lt;/div&gt;&lt;/div&gt;&lt;/div&gt;&lt;/div&gt;&lt;/div&gt;&lt;/div&gt;" style="verticalAlign=top;align=left;overflow=fill;fontSize=12;fontFamily=Helvetica;html=1;" vertex="1" parent="1">
                    <mxGeometry x="1280" y="370" width="310" height="120" as="geometry"/>
                </mxCell>
                <mxCell id="23" value="&lt;p style=&quot;margin: 0px ; margin-top: 4px ; text-align: center&quot;&gt;&lt;b&gt;net_device_ops&lt;/b&gt;&lt;/p&gt;&lt;hr size=&quot;1&quot;&gt;&lt;div style=&quot;height: 2px&quot;&gt;&lt;div style=&quot;color: rgb(171 , 178 , 191) ; font-family: &amp;#34;monaco&amp;#34; , &amp;#34;menlo&amp;#34; , &amp;#34;monaco&amp;#34; , &amp;#34;courier new&amp;#34; , monospace ; font-size: 13px&quot;&gt;&lt;div style=&quot;background-color: rgb(40 , 44 , 52) ; font-family: &amp;#34;monaco&amp;#34; , &amp;#34;menlo&amp;#34; , &amp;#34;monaco&amp;#34; , &amp;#34;courier new&amp;#34; , monospace ; line-height: 20px&quot;&gt;&lt;div style=&quot;font-family: &amp;#34;monaco&amp;#34; , &amp;#34;menlo&amp;#34; , &amp;#34;monaco&amp;#34; , &amp;#34;courier new&amp;#34; , monospace ; line-height: 20px&quot;&gt;&lt;div style=&quot;font-family: &amp;#34;monaco&amp;#34; , &amp;#34;menlo&amp;#34; , &amp;#34;monaco&amp;#34; , &amp;#34;courier new&amp;#34; , monospace ; line-height: 20px&quot;&gt;&lt;div style=&quot;font-family: &amp;#34;monaco&amp;#34; , &amp;#34;menlo&amp;#34; , &amp;#34;monaco&amp;#34; , &amp;#34;courier new&amp;#34; , monospace ; line-height: 20px&quot;&gt;&lt;div&gt;&lt;br&gt;&lt;/div&gt;&lt;/div&gt;&lt;/div&gt;&lt;/div&gt;&lt;/div&gt;&lt;/div&gt;&lt;/div&gt;" style="verticalAlign=top;align=left;overflow=fill;fontSize=12;fontFamily=Helvetica;html=1;" vertex="1" parent="1">
                    <mxGeometry x="1660" y="370" width="310" height="120" as="geometry"/>
                </mxCell>
                <mxCell id="24" value="" style="endArrow=block;dashed=1;endFill=0;endSize=12;html=1;" edge="1" parent="1" target="23">
                    <mxGeometry width="160" relative="1" as="geometry">
                        <mxPoint x="1590" y="437" as="sourcePoint"/>
                        <mxPoint x="1660" y="210" as="targetPoint"/>
                    </mxGeometry>
                </mxCell>
                <mxCell id="25" value="&lt;p style=&quot;margin: 0px ; margin-top: 4px ; text-align: center&quot;&gt;&lt;b&gt;ethtool_ops&lt;/b&gt;&lt;/p&gt;&lt;hr size=&quot;1&quot;&gt;&lt;div style=&quot;height: 2px&quot;&gt;&lt;div style=&quot;color: rgb(171 , 178 , 191) ; font-family: &amp;#34;monaco&amp;#34; , &amp;#34;menlo&amp;#34; , &amp;#34;monaco&amp;#34; , &amp;#34;courier new&amp;#34; , monospace ; font-size: 13px&quot;&gt;&lt;div style=&quot;background-color: rgb(40 , 44 , 52) ; font-family: &amp;#34;monaco&amp;#34; , &amp;#34;menlo&amp;#34; , &amp;#34;monaco&amp;#34; , &amp;#34;courier new&amp;#34; , monospace ; line-height: 20px&quot;&gt;&lt;div style=&quot;font-family: &amp;#34;monaco&amp;#34; , &amp;#34;menlo&amp;#34; , &amp;#34;monaco&amp;#34; , &amp;#34;courier new&amp;#34; , monospace ; line-height: 20px&quot;&gt;&lt;div style=&quot;font-family: &amp;#34;monaco&amp;#34; , &amp;#34;menlo&amp;#34; , &amp;#34;monaco&amp;#34; , &amp;#34;courier new&amp;#34; , monospace ; line-height: 20px&quot;&gt;&lt;div style=&quot;font-family: &amp;#34;monaco&amp;#34; , &amp;#34;menlo&amp;#34; , &amp;#34;monaco&amp;#34; , &amp;#34;courier new&amp;#34; , monospace ; line-height: 20px&quot;&gt;&lt;div&gt;&lt;br&gt;&lt;/div&gt;&lt;/div&gt;&lt;/div&gt;&lt;/div&gt;&lt;/div&gt;&lt;/div&gt;&lt;/div&gt;" style="verticalAlign=top;align=left;overflow=fill;fontSize=12;fontFamily=Helvetica;html=1;" vertex="1" parent="1">
                    <mxGeometry x="1654" width="166" height="60" as="geometry"/>
                </mxCell>
                <mxCell id="26" value="" style="endArrow=block;dashed=1;endFill=0;endSize=12;html=1;exitX=1;exitY=0.5;exitDx=0;exitDy=0;entryX=0;entryY=0.5;entryDx=0;entryDy=0;" edge="1" parent="1" source="19" target="25">
                    <mxGeometry width="160" relative="1" as="geometry">
                        <mxPoint x="1610" y="557" as="sourcePoint"/>
                        <mxPoint x="1680" y="554.8222222222221" as="targetPoint"/>
                    </mxGeometry>
                </mxCell>
                <mxCell id="27" value="" style="endArrow=open;endFill=1;endSize=12;html=1;exitX=1;exitY=0.75;exitDx=0;exitDy=0;entryX=0;entryY=0.5;entryDx=0;entryDy=0;" edge="1" parent="1" source="11" target="22">
                    <mxGeometry width="160" relative="1" as="geometry">
                        <mxPoint x="420" y="810" as="sourcePoint"/>
                        <mxPoint x="600.0000000000002" y="840" as="targetPoint"/>
                    </mxGeometry>
                </mxCell>
                <mxCell id="28" value="" style="endArrow=open;endFill=1;endSize=12;html=1;exitX=1;exitY=0.5;exitDx=0;exitDy=0;entryX=0;entryY=0.5;entryDx=0;entryDy=0;" edge="1" parent="1" source="11" target="20">
                    <mxGeometry width="160" relative="1" as="geometry">
                        <mxPoint x="1180" y="385" as="sourcePoint"/>
                        <mxPoint x="1290" y="440" as="targetPoint"/>
                    </mxGeometry>
                </mxCell>
                <mxCell id="29" value="" style="endArrow=open;endFill=1;endSize=12;html=1;exitX=1;exitY=0.25;exitDx=0;exitDy=0;entryX=0;entryY=0.5;entryDx=0;entryDy=0;" edge="1" parent="1" source="11" target="19">
                    <mxGeometry width="160" relative="1" as="geometry">
                        <mxPoint x="1180" y="260" as="sourcePoint"/>
                        <mxPoint x="1290" y="235" as="targetPoint"/>
                    </mxGeometry>
                </mxCell>
                <mxCell id="33" style="edgeStyle=orthogonalEdgeStyle;rounded=0;orthogonalLoop=1;jettySize=auto;html=1;exitX=0.5;exitY=1;exitDx=0;exitDy=0;entryX=0.5;entryY=0;entryDx=0;entryDy=0;" edge="1" parent="1" source="30" target="17">
                    <mxGeometry relative="1" as="geometry"/>
                </mxCell>
                <mxCell id="30" value="&lt;div style=&quot;background-color: rgb(40 , 44 , 52) ; font-family: &amp;#34;monaco&amp;#34; , &amp;#34;menlo&amp;#34; , &amp;#34;monaco&amp;#34; , &amp;#34;courier new&amp;#34; , monospace ; font-size: 13px ; line-height: 20px&quot;&gt;&lt;div style=&quot;font-family: &amp;#34;monaco&amp;#34; , &amp;#34;menlo&amp;#34; , &amp;#34;monaco&amp;#34; , &amp;#34;courier new&amp;#34; , monospace ; line-height: 20px&quot;&gt;&lt;font color=&quot;#61afef&quot;&gt;loopback_dev_init&lt;/font&gt;&lt;/div&gt;&lt;/div&gt;" style="shape=process;whiteSpace=wrap;html=1;backgroundOutline=1;size=0.029411764705882353;" vertex="1" parent="1">
                    <mxGeometry x="70" y="600" width="340" height="40" as="geometry"/>
                </mxCell>
            </root>
        </mxGraphModel>
    </diagram>
</mxfile>